<svg xmlns="http://www.w3.org/2000/svg" viewBox="0 0 32 32" fill="currentColor" aria-hidden="true">
  <path d="M16.02 3.2A12.72 12.72 0 0 0 5.14 22.5L3.5 28.8l6.44-1.6a12.72 12.72 0 1 0 6.08-24Zm0 2.33a10.39 10.39 0 1 1-5.25 19.35l-.38-.23-3.55.88.9-3.45-.25-.4A10.39 10.39 0 0 1 16.02 5.53Zm-4.53 5.38c-.25 0-.64.1-.97.47-.33.36-1.27 1.24-1.27 3.02s1.3 3.5 1.48 3.75c.18.24 2.5 4 6.2 5.45 3.08 1.22 3.7.97 4.37.91.67-.06 2.15-.88 2.45-1.73.3-.85.3-1.57.21-1.73-.09-.15-.33-.24-.7-.42-.36-.18-2.15-1.06-2.48-1.18-.33-.12-.58-.18-.82.18-.24.36-.94 1.18-1.15 1.42-.21.24-.42.27-.79.09-.36-.18-1.53-.56-2.91-1.8-1.08-.96-1.8-2.14-2.01-2.5-.21-.36-.02-.56.16-.74.16-.16.36-.42.55-.64.18-.21.24-.36.36-.61.12-.24.06-.45-.03-.64-.09-.18-.82-1.97-1.12-2.7-.3-.7-.6-.61-.82-.62h-.7Z"/>
</svg>
